<?xml version="1.0" standalone="no"?>
<!DOCTYPE svg PUBLIC "-//W3C//DTD SVG 20010904//EN"
 "http://www.w3.org/TR/2001/REC-SVG-20010904/DTD/svg10.dtd">
<svg version="1.0" xmlns="http://www.w3.org/2000/svg"
 width="403.000000pt" height="626.000000pt" viewBox="0 0 403.000000 626.000000"
 preserveAspectRatio="xMidYMid meet">

<g transform="translate(0.000000,626.000000) scale(0.100000,-0.100000)"
fill="#000000" stroke="none">
<path d="M2482 5899 c-436 -39 -935 -321 -1402 -789 -243 -243 -399 -456 -544
-740 -201 -394 -300 -770 -300 -1140 -1 -149 3 -188 22 -265 82 -325 331 -566
683 -660 52 -14 104 -25 117 -25 40 0 23 -15 -46 -38 -185 -65 -376 -184 -439
-276 -27 -40 -33 -58 -33 -101 0 -69 34 -116 130 -180 66 -44 259 -134 287
-135 35 0 15 -20 -40 -40 -171 -62 -379 -192 -498 -310 -119 -118 -170 -245
-150 -371 27 -167 163 -300 377 -369 232 -74 480 -104 799 -97 266 6 427 27
659 86 395 101 770 291 966 490 92 93 130 154 155 247 44 166 -48 339 -229
428 -160 79 -317 103 -971 146 -481 32 -604 46 -745 87 -290 83 -366 203 -217
340 76 70 89 76 190 79 183 8 405 63 595 149 587 265 1159 767 1545 1356 83
126 177 285 177 300 0 5 -310 8 -792 7 l-791 -3 -417 -859 c-229 -472 -421
-865 -426 -873 -8 -13 -24 -14 -109 -4 -149 16 -276 64 -410 154 -164 111
-271 257 -341 467 -28 82 -29 92 -28 285 0 178 3 214 27 325 85 401 283 757
592 1065 225 225 499 399 740 471 186 55 414 42 508 -30 92 -70 120 -190 76
-321 l-24 -71 295 72 c162 40 527 131 810 202 l515 129 -3 29 c-11 98 -126
291 -241 405 -194 191 -534 349 -806 373 -140 13 -172 13 -263 5z m-1351
-4389 c171 -31 550 -57 1009 -70 208 -6 384 -16 444 -25 295 -45 485 -188 430
-324 -57 -144 -411 -288 -849 -346 -172 -23 -460 -30 -660 -16 -369 26 -604
93 -726 208 -157 146 -70 351 235 557 44 30 43 29 117 16z"/>
</g>
</svg>
